<?xml version="1.0" standalone="no"?>
<!DOCTYPE svg PUBLIC "-//W3C//DTD SVG 20010904//EN"
 "http://www.w3.org/TR/2001/REC-SVG-20010904/DTD/svg10.dtd">
<svg version="1.0" xmlns="http://www.w3.org/2000/svg"
 width="225.000000pt" height="225.000000pt" viewBox="0 0 225.000000 225.000000"
 preserveAspectRatio="xMidYMid meet">

<g transform="translate(0.000000,225.000000) scale(0.100000,-0.100000)"
fill="#000000" stroke="none">
<path d="M251 1504 c-45 -37 -56 -88 -31 -140 22 -44 53 -64 101 -64 89 0 145
91 105 169 -34 64 -120 82 -175 35z"/>
<path d="M665 1270 c-3 -5 -1 -10 4 -10 6 0 11 5 11 10 0 6 -2 10 -4 10 -3 0
-8 -4 -11 -10z"/>
<path d="M244 1202 c-55 -46 -59 -109 -10 -158 73 -73 176 -24 176 82 0 53
-45 94 -102 94 -26 -1 -51 -8 -64 -18z"/>
<path d="M313 922 c-12 -9 -28 -32 -34 -49 -20 -60 42 -130 105 -118 35 6 65
31 77 64 12 31 -6 86 -34 106 -29 20 -87 19 -114 -3z"/>
<path d="M680 901 c0 -6 4 -13 10 -16 6 -3 7 1 4 9 -7 18 -14 21 -14 7z"/>
<path d="M442 693 c-7 -3 -19 -18 -28 -35 -28 -55 12 -122 74 -122 25 0 41 7
58 28 48 55 15 137 -54 135 -20 0 -43 -3 -50 -6z"/>
<path d="M592 503 c-7 -3 -19 -18 -27 -33 -19 -36 -7 -72 31 -96 25 -17 28
-17 63 2 30 16 37 25 39 56 5 59 -48 95 -106 71z"/>
<path d="M750 352 c-43 -35 -15 -112 41 -112 27 0 59 35 59 65 0 30 -32 65
-59 65 -10 0 -29 -8 -41 -18z"/>
<path d="M916 244 c-21 -21 -20 -47 2 -67 27 -24 59 -21 78 8 15 23 15 27 0
50 -19 29 -56 33 -80 9z"/>
<path d="M1080 186 c-20 -25 -8 -61 22 -64 37 -4 57 31 32 59 -20 23 -37 24
-54 5z"/>
<path d="M1222 123 c2 -20 8 -28 23 -28 31 0 28 49 -3 53 -20 3 -23 0 -20 -25z"/>
</g>
</svg>
